/* XPM */
static const char *gtk_zoom_in_xpm[] = {
/* columns rows colors chars-per-pixel */
"24 24 70 1",
"  c #2D3436",
". c #2E3436",
"X c #2E3536",
"o c #2F3537",
"O c #2F3538",
"+ c #2F3638",
"@ c #313537",
"# c #303638",
"$ c #363B3B",
"% c #363B3D",
"& c #353C3C",
"* c #373D3F",
"= c #383C3E",
"- c #3B4142",
"; c #3C4242",
": c #424544",
"> c #4B4F4B",
", c #525350",
"< c #555753",
"1 c #585A56",
"2 c #616564",
"3 c #666B69",
"4 c #666C69",
"5 c #6D7171",
"6 c #6F7373",
"7 c #777B7A",
"8 c #8F908D",
"9 c #8F9290",
"0 c #989C98",
"q c #999E9A",
"w c #ACAFAB",
"e c #ACAEAC",
"r c #B2B4B1",
"t c #B8BBB5",
"y c #BEC1BC",
"u c #BEC0BD",
"i c #D1D4CF",
"p c #D2D6CF",
"a c #CED0D0",
"s c #CFD0D0",
"d c #D1D2D1",
"f c #D3D6D0",
"g c #D4D6D2",
"h c #D4D7D2",
"j c #D5D6D3",
"k c #D5D7D3",
"l c #D5D9D1",
"z c #D6DAD2",
"x c #D9DCD5",
"c c #DCDED8",
"v c #DDDFD9",
"b c #DDE0DA",
"n c #DFE1DC",
"m c #DFE2DC",
"M c #E0E2DC",
"N c #E2E4DF",
"B c #E3E4E0",
"V c #E5E7E3",
"C c #E6E7E3",
"Z c #E8E9E6",
"A c #E9EAE6",
"S c #E9EAE7",
"D c #EAEAE7",
"F c #EBECE9",
"G c #ECECE9",
"H c #ECECEA",
"J c #ECEDEA",
"K c #EDEDEB",
"L c #EEEEEC",
"P c None",
/* pixels */
"PPPPPPPPPPPPPPPPPPPPPPPP",
"PPPPPP   @ .PPPPPPPPPPPP",
"PPPPP 6eklt9%PPPPPPPPPPP",
"PPP ;dHDCBMvd2 PPPPPPPPP",
"PPP;GLHHGGDMxl4PPPPPPPPP",
"PP sLLLL88LLBld=PPPPPPPP",
"P 5GGLLL11LLGbxq PPPPPPP",
"P wDLLLL<1LLLAby PPPPPPP",
"P dZG81<<<<18Gmk@PPPPPPP",
"P zBL81<<<118GBk PPPPPPP",
"P tmDLLL<<GLLHBr PPPPPPP",
"P 8bmLLL11LLLSS7 PPPPPPP",
"PP=dxNLL88LLHHa@PPPPPPPP",
"PPP2lxbDHGHDHH;PPPPPPPPP",
"PPP 4dxcmBCZs;&PPPPPPPPP",
"PPPPP&quhkr7+PP:+#PPPPPP",
"PPPPPP +  @ PPP#>&@PPPPP",
"PPPPPPPPPPPPPPP#&,&@PPPP",
"PPPPPPPPPPPPPPPP@&,$+PPP",
"PPPPPPPPPPPPPPPPP+&,&#PP",
"PPPPPPPPPPPPPPPPPP@&> PP",
"PPPPPPPPPPPPPPPPPPP#@@PP",
"PPPPPPPPPPPPPPPPPPPPPPPP",
"PPPPPPPPPPPPPPPPPPPPPPPP"
};
